<?xml version="1.0" encoding="UTF-8"?>
<svg xmlns="http://www.w3.org/2000/svg" xmlns:xlink="http://www.w3.org/1999/xlink" width="190px" height="58px" viewBox="0 0 188 58" version="1.1">
<defs>
<linearGradient id="linear0" gradientUnits="userSpaceOnUse" x1="60.44" y1="361.94" x2="178.43" y2="634.17" gradientTransform="matrix(0.110646,0,0,-0.110999,1.473684,87.742606)">
<stop offset="0" style="stop-color:rgb(82.745098%,0%,85.882353%);stop-opacity:1;"/>
<stop offset="1" style="stop-color:rgb(100%,40%,0%);stop-opacity:1;"/>
</linearGradient>
<linearGradient id="linear1" gradientUnits="userSpaceOnUse" x1="64.29" y1="360.26" x2="182.31" y2="632.49" gradientTransform="matrix(0.110646,0,0,-0.110999,1.473684,87.742606)">
<stop offset="0" style="stop-color:rgb(82.745098%,0%,85.882353%);stop-opacity:1;"/>
<stop offset="1" style="stop-color:rgb(100%,40%,0%);stop-opacity:1;"/>
</linearGradient>
<linearGradient id="linear2" gradientUnits="userSpaceOnUse" x1="433.39" y1="635.27" x2="123.11" y2="482.29" gradientTransform="matrix(0.110646,0,0,-0.110999,1.473684,87.742606)">
<stop offset="0" style="stop-color:rgb(82.745098%,0%,85.882353%);stop-opacity:1;"/>
<stop offset="1" style="stop-color:rgb(0%,81.176471%,100%);stop-opacity:1;"/>
</linearGradient>
<linearGradient id="linear3" gradientUnits="userSpaceOnUse" x1="255.05" y1="735.89" x2="332.83" y2="140.49" gradientTransform="matrix(0.110646,0,0,-0.110999,1.473684,87.742606)">
<stop offset="0" style="stop-color:rgb(100%,55.686275%,10.588235%);stop-opacity:1;"/>
<stop offset="1" style="stop-color:rgb(63.529412%,0%,59.607843%);stop-opacity:1;"/>
</linearGradient>
<linearGradient id="linear4" gradientUnits="userSpaceOnUse" x1="255.53" y1="735.98" x2="333.31" y2="140.57" gradientTransform="matrix(0.110646,0,0,-0.110999,1.473684,87.742606)">
<stop offset="0" style="stop-color:rgb(100%,55.686275%,10.588235%);stop-opacity:1;"/>
<stop offset="1" style="stop-color:rgb(63.529412%,0%,59.607843%);stop-opacity:1;"/>
</linearGradient>
<linearGradient id="linear5" gradientUnits="userSpaceOnUse" x1="159.64" y1="381.49" x2="293.54" y2="381.49" gradientTransform="matrix(0.110646,0,0,-0.110999,1.473684,87.742606)">
<stop offset="0" style="stop-color:rgb(0%,84.705882%,0%);stop-opacity:1;"/>
<stop offset="1" style="stop-color:rgb(0%,81.176471%,100%);stop-opacity:1;"/>
</linearGradient>
<linearGradient id="linear6" gradientUnits="userSpaceOnUse" x1="293.24" y1="285.06" x2="300.88" y2="282.41" gradientTransform="matrix(0.110646,0,0,-0.110999,1.473684,87.742606)">
<stop offset="0" style="stop-color:rgb(0%,84.705882%,0%);stop-opacity:1;"/>
<stop offset="1" style="stop-color:rgb(0%,81.176471%,100%);stop-opacity:1;"/>
</linearGradient>
<linearGradient id="linear7" gradientUnits="userSpaceOnUse" x1="305.03" y1="573.27" x2="302.53" y2="572.04" gradientTransform="matrix(0.110646,0,0,-0.110999,1.473684,87.742606)">
<stop offset="0" style="stop-color:rgb(82.745098%,0%,85.882353%);stop-opacity:1;"/>
<stop offset="1" style="stop-color:rgb(0%,81.176471%,100%);stop-opacity:1;"/>
</linearGradient>
<linearGradient id="linear8" gradientUnits="userSpaceOnUse" x1="358.58" y1="593.25" x2="121.23" y2="518.12" gradientTransform="matrix(0.110646,0,0,-0.110999,1.473684,87.742606)">
<stop offset="0" style="stop-color:rgb(82.745098%,0%,85.882353%);stop-opacity:1;"/>
<stop offset="1" style="stop-color:rgb(0%,81.176471%,100%);stop-opacity:1;"/>
</linearGradient>
<linearGradient id="linear9" gradientUnits="userSpaceOnUse" x1="358.31" y1="594.03" x2="120.96" y2="518.94" gradientTransform="matrix(0.110646,0,0,-0.110999,1.473684,87.742606)">
<stop offset="0" style="stop-color:rgb(82.745098%,0%,85.882353%);stop-opacity:1;"/>
<stop offset="1" style="stop-color:rgb(0%,81.176471%,100%);stop-opacity:1;"/>
</linearGradient>
</defs>
<g id="surface1">
<path style=" stroke:none;fill-rule:evenodd;fill:url(#linear0);" d="M 5.640625 45.617188 C 4.976562 47.058594 5.601562 48.765625 7.035156 49.429688 C 8.472656 50.097656 10.171875 49.46875 10.835938 48.03125 L 18.183594 32.148438 L 10.761719 34.550781 Z M 5.640625 45.617188 "/>
<path style=" stroke:none;fill-rule:evenodd;fill:url(#linear1);" d="M 23.894531 12.957031 C 22.46875 12.289062 20.769531 12.90625 20.101562 14.335938 C 20.101562 14.34375 20.097656 14.347656 20.09375 14.355469 L 14.050781 27.441406 L 21.472656 25.035156 L 25.296875 16.761719 C 25.957031 15.324219 25.332031 13.621094 23.902344 12.957031 Z M 23.894531 12.957031 "/>
<path style=" stroke:none;fill-rule:evenodd;fill:url(#linear2);" d="M 39.40625 24.804688 C 37.8125 24.742188 36.570312 23.394531 36.632812 21.796875 C 36.675781 20.625 37.425781 19.59375 38.527344 19.191406 L 41.332031 18.289062 C 42.824219 17.757812 44.464844 18.535156 44.996094 20.03125 C 45.527344 21.527344 44.75 23.171875 43.257812 23.703125 C 43.199219 23.726562 43.140625 23.746094 43.082031 23.761719 L 40.277344 24.664062 C 39.996094 24.757812 39.699219 24.804688 39.40625 24.804688 Z M 39.40625 24.804688 "/>
<path style=" stroke:none;fill-rule:evenodd;fill:url(#linear3);" d="M 34.90625 23.703125 C 34.910156 23.734375 34.910156 23.761719 34.90625 23.789062 L 32.335938 4.15625 C 32.304688 2.554688 30.988281 1.285156 29.394531 1.316406 C 27.800781 1.347656 26.535156 2.667969 26.566406 4.265625 C 26.570312 4.488281 26.597656 4.710938 26.65625 4.929688 L 28.984375 22.59375 L 31.304688 21.847656 C 32.808594 21.375 34.410156 22.203125 34.90625 23.703125 Z M 34.90625 23.703125 "/>
<path style=" stroke:none;fill-rule:evenodd;fill:url(#linear4);" d="M 35.042969 24.671875 C 35.003906 25.886719 34.207031 26.949219 33.054688 27.320312 L 29.757812 28.390625 L 31.90625 44.660156 L 38.167969 52.046875 C 38.5 52.4375 38.71875 52.90625 38.816406 53.410156 Z M 35.042969 24.671875 "/>
<path style=" stroke:none;fill-rule:evenodd;fill:url(#linear5);" d="M 33.953125 55.90625 C 33.90625 55.871094 33.863281 55.828125 33.824219 55.78125 L 19.824219 39.351562 C 18.960938 38.007812 19.351562 36.214844 20.691406 35.347656 C 21.78125 34.644531 23.210938 34.757812 24.179688 35.628906 L 31.898438 44.667969 L 33.167969 54.289062 C 33.246094 54.898438 33.519531 55.46875 33.953125 55.90625 Z M 33.953125 55.90625 "/>
<path style=" stroke:none;fill-rule:evenodd;fill:rgb(0%,18.039216%,49.019608%);fill-opacity:1;" d="M 38.867188 53.941406 C 38.867188 54.054688 38.859375 54.164062 38.839844 54.277344 C 38.839844 54.335938 38.828125 54.398438 38.816406 54.457031 C 38.792969 54.574219 38.765625 54.691406 38.726562 54.804688 C 38.699219 54.878906 38.679688 54.945312 38.640625 55.027344 C 38.601562 55.144531 38.546875 55.257812 38.476562 55.359375 C 38.394531 55.496094 38.304688 55.625 38.199219 55.746094 C 38.101562 55.871094 37.992188 55.988281 37.867188 56.089844 C 37.667969 56.253906 37.453125 56.394531 37.21875 56.503906 C 37.128906 56.546875 37.039062 56.582031 36.941406 56.609375 C 36.855469 56.640625 36.769531 56.667969 36.683594 56.683594 C 36.578125 56.714844 36.476562 56.734375 36.371094 56.742188 C 36.25 56.761719 36.128906 56.773438 36.007812 56.773438 C 35.878906 56.773438 35.753906 56.761719 35.632812 56.742188 C 35.574219 56.742188 35.523438 56.734375 35.472656 56.714844 C 35.207031 56.667969 34.953125 56.582031 34.714844 56.457031 C 34.507812 56.351562 34.3125 56.21875 34.136719 56.066406 C 34.066406 56.015625 34.007812 55.957031 33.953125 55.890625 C 33.523438 55.453125 33.246094 54.882812 33.171875 54.273438 L 31.898438 44.667969 L 38.167969 52.046875 C 38.5 52.4375 38.71875 52.90625 38.816406 53.410156 C 38.847656 53.585938 38.863281 53.761719 38.867188 53.941406 Z M 38.867188 53.941406 "/>
<path style=" stroke:none;fill-rule:evenodd;fill:url(#linear6);" d="M 34.714844 56.472656 C 34.503906 56.371094 34.308594 56.238281 34.136719 56.082031 C 34.3125 56.234375 34.507812 56.367188 34.714844 56.472656 Z M 34.714844 56.472656 "/>
<path style=" stroke:none;fill-rule:evenodd;fill:rgb(2.745098%,12.941176%,55.686275%);fill-opacity:1;" d="M 21.46875 25.035156 L 18.1875 32.148438 L 10.761719 34.550781 L 14.050781 27.441406 Z M 21.46875 25.035156 "/>
<path style=" stroke:none;fill-rule:evenodd;fill:rgb(0%,0%,0%);fill-opacity:1;" d="M 35.042969 24.65625 C 35.011719 25.878906 34.214844 26.945312 33.054688 27.320312 L 29.757812 28.390625 L 28.992188 22.597656 L 31.316406 21.851562 C 32.820312 21.378906 34.421875 22.207031 34.914062 23.707031 C 34.917969 23.734375 34.917969 23.765625 34.914062 23.792969 L 35.042969 24.652344 Z M 35.042969 24.65625 "/>
<path style=" stroke:none;fill-rule:evenodd;fill:url(#linear7);" d="M 35.042969 24.65625 L 34.925781 23.800781 C 35.015625 24.078125 35.054688 24.367188 35.042969 24.65625 Z M 35.042969 24.65625 "/>
<path style=" stroke:none;fill-rule:evenodd;fill:url(#linear8);" d="M 1.605469 34.484375 C 1.996094 35.675781 3.105469 36.480469 4.355469 36.476562 C 4.65625 36.480469 4.953125 36.433594 5.234375 36.339844 L 10.785156 34.546875 L 14.082031 27.441406 L 3.457031 30.871094 C 1.960938 31.367188 1.136719 32.972656 1.605469 34.480469 Z M 1.605469 34.484375 "/>
<path style=" stroke:none;fill-rule:evenodd;fill:url(#linear9);" d="M 28.984375 22.59375 L 21.46875 25.035156 L 18.1875 32.148438 L 29.746094 28.398438 Z M 28.984375 22.59375 "/>
<path style=" stroke:none;fill-rule:evenodd;fill:rgb(100%,0%,19.215686%);fill-opacity:1;" d="M 58.675781 50.230469 C 58.675781 51.257812 58.210938 51.757812 57.355469 51.757812 C 56.503906 51.757812 56.144531 51.34375 56.144531 50.308594 L 56.144531 45.871094 L 53.550781 45.871094 L 53.550781 50.867188 C 53.550781 52.816406 54.5625 53.875 56.300781 53.875 C 57.25 53.921875 58.148438 53.464844 58.675781 52.675781 L 58.675781 53.644531 L 61.257812 53.644531 L 61.257812 45.871094 L 58.664062 45.871094 Z M 58.675781 50.230469 "/>
<path style=" stroke:none;fill-rule:evenodd;fill:rgb(100%,0%,19.215686%);fill-opacity:1;" d="M 67.480469 45.636719 C 66.535156 45.582031 65.628906 46.023438 65.089844 46.800781 L 65.089844 45.871094 L 62.558594 45.871094 L 62.558594 56.789062 L 65.152344 56.789062 L 65.152344 52.785156 C 65.699219 53.511719 66.574219 53.914062 67.480469 53.859375 C 68.773438 53.921875 69.96875 53.175781 70.492188 51.992188 C 71.050781 50.554688 71.050781 48.960938 70.492188 47.523438 C 69.972656 46.328125 68.777344 45.578125 67.480469 45.636719 Z M 67.960938 50.945312 C 67.722656 51.460938 67.183594 51.773438 66.617188 51.722656 C 65.640625 51.722656 65.113281 51.105469 65.113281 49.949219 L 65.113281 49.535156 C 65.113281 48.386719 65.640625 47.761719 66.617188 47.761719 C 67.179688 47.714844 67.714844 48.023438 67.953125 48.539062 C 68.097656 48.925781 68.160156 49.339844 68.140625 49.753906 C 68.160156 50.160156 68.101562 50.566406 67.960938 50.945312 Z M 67.960938 50.945312 "/>
<path style=" stroke:none;fill-rule:evenodd;fill:rgb(100%,0%,19.215686%);fill-opacity:1;" d="M 88.007812 45.652344 C 87.382812 45.648438 86.816406 46.007812 86.546875 46.570312 L 86.546875 45.871094 L 83.96875 45.871094 L 83.96875 53.644531 L 86.5625 53.644531 L 86.5625 48.730469 C 86.5625 48.191406 86.609375 48.0625 86.828125 47.96875 C 87.066406 48.417969 87.535156 48.6875 88.042969 48.667969 C 88.835938 48.699219 89.5 48.074219 89.53125 47.277344 C 89.53125 47.238281 89.53125 47.199219 89.53125 47.160156 C 89.578125 46.371094 88.980469 45.695312 88.195312 45.648438 C 88.132812 45.644531 88.070312 45.644531 88.007812 45.648438 Z M 88.007812 45.652344 "/>
<path style=" stroke:none;fill-rule:evenodd;fill:rgb(100%,0%,19.215686%);fill-opacity:1;" d="M 93.917969 45.636719 C 92.179688 45.636719 90.859375 46.148438 90.34375 47.289062 C 90.199219 47.636719 90.121094 48.007812 90.113281 48.382812 L 92.753906 48.382812 C 92.757812 48.222656 92.789062 48.0625 92.847656 47.914062 C 93 47.570312 93.34375 47.414062 93.949219 47.414062 C 94.554688 47.414062 94.863281 47.589844 95.019531 47.933594 C 95.128906 48.195312 95.171875 48.476562 95.144531 48.757812 L 95.144531 48.882812 L 93.980469 48.882812 C 92.085938 48.882812 90.582031 49.164062 90.019531 50.378906 C 89.886719 50.714844 89.824219 51.078125 89.832031 51.4375 C 89.816406 51.820312 89.894531 52.199219 90.050781 52.542969 C 90.441406 53.417969 91.355469 53.851562 92.585938 53.851562 C 93.8125 53.851562 94.644531 53.4375 95.144531 52.714844 L 95.144531 53.636719 L 97.738281 53.636719 L 97.738281 49.171875 C 97.757812 48.519531 97.648438 47.867188 97.414062 47.257812 C 96.902344 46.136719 95.796875 45.636719 93.921875 45.636719 Z M 95.15625 50.449219 C 95.183594 50.742188 95.132812 51.039062 95.015625 51.304688 C 94.8125 51.757812 94.363281 52.003906 93.667969 52.003906 C 93.261719 52.066406 92.863281 51.882812 92.640625 51.539062 C 92.535156 51.3125 92.535156 51.050781 92.640625 50.820312 C 92.808594 50.40625 93.417969 50.339844 94.160156 50.339844 L 95.15625 50.339844 Z M 95.15625 50.449219 "/>
<path style=" stroke:none;fill-rule:evenodd;fill:rgb(100%,0%,19.215686%);fill-opacity:1;" d="M 104.554688 42.644531 L 104.554688 46.710938 C 104.003906 45.984375 103.132812 45.582031 102.222656 45.636719 C 100.925781 45.570312 99.726562 46.324219 99.214844 47.519531 C 98.652344 48.957031 98.652344 50.550781 99.214844 51.988281 C 99.730469 53.179688 100.929688 53.921875 102.222656 53.859375 C 103.164062 53.914062 104.070312 53.480469 104.613281 52.707031 L 104.613281 53.644531 L 107.144531 53.644531 L 107.144531 42.644531 Z M 104.585938 49.984375 C 104.585938 51.132812 104.058594 51.757812 103.082031 51.757812 C 102.519531 51.804688 101.984375 51.496094 101.746094 50.980469 C 101.601562 50.582031 101.539062 50.160156 101.5625 49.738281 C 101.539062 49.324219 101.601562 48.910156 101.746094 48.523438 C 101.984375 48.007812 102.519531 47.695312 103.082031 47.742188 C 104.058594 47.742188 104.585938 48.367188 104.585938 49.519531 Z M 104.585938 49.984375 "/>
<path style=" stroke:none;fill-rule:evenodd;fill:rgb(100%,0%,19.215686%);fill-opacity:1;" d="M 78.109375 49.796875 L 79.785156 49.796875 L 79.71875 50.058594 C 79.511719 50.929688 78.480469 51.511719 77.636719 51.511719 C 76.46875 51.511719 74.960938 50.949219 74.960938 48.265625 C 74.960938 46.042969 75.933594 44.957031 77.433594 44.957031 C 78.257812 44.957031 78.871094 45.152344 79.25 45.71875 C 79.421875 45.984375 79.53125 46.285156 79.570312 46.597656 L 82.53125 46.597656 C 82.511719 45.636719 82.128906 44.71875 81.460938 44.03125 L 81.40625 43.976562 C 80.507812 42.996094 79.148438 42.453125 77.46875 42.453125 C 74.042969 42.453125 71.828125 44.738281 71.828125 48.28125 C 71.828125 52.378906 74.632812 53.832031 77.039062 53.832031 C 78.386719 53.832031 79.597656 53.417969 80.335938 52.636719 L 80.367188 53.644531 L 82.699219 53.644531 L 82.699219 47.792969 L 78.109375 47.792969 Z M 78.109375 49.796875 "/>
<path style=" stroke:none;fill-rule:evenodd;fill:rgb(0%,0%,0%);fill-opacity:1;" d="M 56.621094 20.058594 L 56.621094 29.273438 L 57.136719 29.273438 C 57.300781 29.285156 57.46875 29.253906 57.621094 29.1875 C 57.757812 29.113281 57.867188 29 57.949219 28.871094 L 60.09375 25.664062 C 60.203125 25.488281 60.355469 25.34375 60.535156 25.25 C 60.738281 25.152344 60.964844 25.109375 61.1875 25.117188 L 64.296875 25.117188 L 61.363281 29.167969 C 61.230469 29.351562 61.078125 29.523438 60.910156 29.675781 C 60.742188 29.828125 60.566406 29.96875 60.375 30.089844 C 60.714844 30.347656 61 30.671875 61.21875 31.039062 L 64.414062 36.488281 L 61.347656 36.488281 C 61.121094 36.496094 60.894531 36.449219 60.683594 36.359375 C 60.488281 36.265625 60.328125 36.113281 60.230469 35.917969 L 58.085938 31.886719 C 58.015625 31.742188 57.90625 31.617188 57.769531 31.527344 C 57.613281 31.464844 57.445312 31.4375 57.273438 31.445312 L 56.617188 31.445312 L 56.617188 36.5 L 53.226562 36.5 L 53.226562 20.058594 Z M 56.621094 20.058594 "/>
<path style=" stroke:none;fill-rule:evenodd;fill:rgb(0%,0%,0%);fill-opacity:1;" d="M 65.179688 36.503906 L 65.179688 25.113281 L 67.28125 25.113281 C 67.46875 25.109375 67.65625 25.15625 67.816406 25.253906 C 67.957031 25.355469 68.066406 25.5 68.117188 25.667969 L 68.3125 26.328125 C 68.527344 26.125 68.753906 25.933594 68.988281 25.757812 C 69.222656 25.582031 69.476562 25.433594 69.738281 25.3125 C 70.019531 25.1875 70.308594 25.09375 70.605469 25.03125 C 70.9375 24.957031 71.277344 24.921875 71.617188 24.921875 C 72.183594 24.910156 72.746094 25.023438 73.265625 25.25 C 73.730469 25.453125 74.144531 25.757812 74.476562 26.148438 C 74.8125 26.550781 75.066406 27.015625 75.222656 27.519531 C 75.394531 28.078125 75.480469 28.664062 75.472656 29.25 L 75.472656 36.503906 L 72.078125 36.503906 L 72.078125 29.265625 C 72.105469 28.800781 71.972656 28.339844 71.695312 27.96875 C 71.414062 27.640625 70.996094 27.46875 70.566406 27.5 C 70.199219 27.496094 69.835938 27.574219 69.503906 27.734375 C 69.164062 27.90625 68.84375 28.125 68.5625 28.382812 L 68.5625 36.503906 Z M 65.179688 36.503906 "/>
<path style=" stroke:none;fill-rule:evenodd;fill:rgb(0%,0%,0%);fill-opacity:1;" d="M 82.289062 24.9375 C 83.089844 24.929688 83.886719 25.070312 84.640625 25.351562 C 86.03125 25.863281 87.128906 26.957031 87.648438 28.347656 C 87.9375 29.128906 88.078125 29.953125 88.0625 30.78125 C 88.074219 31.617188 87.9375 32.449219 87.648438 33.234375 C 87.386719 33.929688 86.984375 34.5625 86.464844 35.089844 C 85.945312 35.609375 85.324219 36.007812 84.640625 36.265625 C 83.890625 36.546875 83.089844 36.6875 82.289062 36.679688 C 81.480469 36.6875 80.675781 36.546875 79.917969 36.265625 C 79.230469 36.007812 78.601562 35.605469 78.078125 35.089844 C 77.554688 34.5625 77.148438 33.929688 76.886719 33.234375 C 76.597656 32.449219 76.457031 31.617188 76.472656 30.78125 C 76.457031 29.953125 76.597656 29.125 76.886719 28.347656 C 77.140625 27.652344 77.546875 27.019531 78.070312 26.492188 C 78.597656 25.980469 79.222656 25.585938 79.910156 25.324219 C 80.671875 25.050781 81.476562 24.921875 82.289062 24.9375 Z M 82.289062 34.152344 C 82.96875 34.203125 83.625 33.886719 84.011719 33.324219 C 84.382812 32.773438 84.5625 31.9375 84.5625 30.804688 C 84.5625 29.675781 84.382812 28.839844 84.011719 28.289062 C 83.625 27.726562 82.96875 27.414062 82.289062 27.464844 C 81.597656 27.410156 80.925781 27.722656 80.527344 28.289062 C 80.152344 28.839844 79.964844 29.675781 79.964844 30.804688 C 79.964844 31.9375 80.152344 32.773438 80.527344 33.324219 C 80.925781 33.894531 81.597656 34.207031 82.289062 34.152344 Z M 82.289062 34.152344 "/>
<path style=" stroke:none;fill-rule:evenodd;fill:rgb(0%,0%,0%);fill-opacity:1;" d="M 87.949219 25.113281 L 90.667969 25.113281 C 90.886719 25.105469 91.101562 25.164062 91.289062 25.277344 C 91.449219 25.367188 91.5625 25.515625 91.605469 25.691406 L 92.746094 30.800781 C 92.835938 31.191406 92.914062 31.566406 92.988281 31.929688 C 93.0625 32.292969 93.125 32.660156 93.183594 33.019531 C 93.285156 32.660156 93.394531 32.296875 93.507812 31.933594 C 93.625 31.570312 93.730469 31.195312 93.84375 30.800781 L 95.265625 25.679688 C 95.316406 25.507812 95.429688 25.359375 95.582031 25.265625 C 95.753906 25.152344 95.957031 25.09375 96.164062 25.097656 L 97.671875 25.097656 C 97.890625 25.089844 98.105469 25.148438 98.292969 25.265625 C 98.445312 25.359375 98.5625 25.503906 98.613281 25.679688 L 99.972656 30.800781 C 100.074219 31.191406 100.179688 31.566406 100.28125 31.929688 C 100.386719 32.292969 100.488281 32.664062 100.582031 33.039062 C 100.640625 32.675781 100.714844 32.3125 100.796875 31.945312 C 100.882812 31.582031 100.972656 31.203125 101.066406 30.800781 L 102.269531 25.691406 C 102.3125 25.519531 102.425781 25.367188 102.582031 25.277344 C 102.757812 25.167969 102.960938 25.109375 103.167969 25.113281 L 105.75 25.113281 L 102.226562 36.5 L 99.464844 36.5 C 99.332031 36.503906 99.199219 36.457031 99.09375 36.367188 C 98.976562 36.25 98.890625 36.097656 98.855469 35.929688 L 97.234375 30.25 C 97.160156 29.996094 97.09375 29.742188 97.027344 29.492188 C 96.960938 29.246094 96.902344 28.996094 96.851562 28.75 C 96.796875 29.003906 96.746094 29.257812 96.683594 29.511719 C 96.621094 29.761719 96.546875 30.019531 96.46875 30.273438 L 94.816406 35.929688 C 94.753906 36.273438 94.441406 36.519531 94.09375 36.5 L 91.464844 36.5 Z M 87.949219 25.113281 "/>
<path style=" stroke:none;fill-rule:evenodd;fill:rgb(0%,0%,0%);fill-opacity:1;" d="M 109.914062 20.058594 L 109.914062 36.5 L 106.519531 36.5 L 106.519531 20.058594 Z M 109.914062 20.058594 "/>
<path style=" stroke:none;fill-rule:evenodd;fill:rgb(0%,0%,0%);fill-opacity:1;" d="M 116.851562 24.9375 C 117.550781 24.929688 118.25 25.046875 118.910156 25.289062 C 119.511719 25.511719 120.0625 25.859375 120.519531 26.308594 C 120.984375 26.777344 121.339844 27.34375 121.570312 27.964844 C 121.832031 28.667969 121.960938 29.414062 121.949219 30.164062 C 121.953125 30.375 121.941406 30.585938 121.917969 30.792969 C 121.902344 30.929688 121.859375 31.058594 121.792969 31.179688 C 121.742188 31.269531 121.65625 31.339844 121.558594 31.371094 C 121.4375 31.414062 121.308594 31.433594 121.183594 31.429688 L 114.640625 31.429688 C 114.671875 32.203125 114.980469 32.9375 115.503906 33.5 C 116 33.941406 116.648438 34.171875 117.3125 34.144531 C 117.65625 34.148438 118 34.101562 118.328125 34 C 118.589844 33.914062 118.84375 33.804688 119.089844 33.679688 L 119.703125 33.363281 C 119.882812 33.269531 120.085938 33.21875 120.289062 33.21875 C 120.53125 33.203125 120.761719 33.316406 120.902344 33.515625 L 121.886719 34.757812 C 121.558594 35.136719 121.175781 35.46875 120.753906 35.734375 C 120.367188 35.984375 119.953125 36.183594 119.515625 36.332031 C 119.101562 36.472656 118.671875 36.570312 118.238281 36.628906 C 117.828125 36.683594 117.414062 36.707031 117 36.707031 C 116.238281 36.714844 115.480469 36.582031 114.761719 36.320312 C 114.078125 36.066406 113.453125 35.671875 112.929688 35.164062 C 112.390625 34.617188 111.96875 33.96875 111.695312 33.25 C 111.375 32.402344 111.222656 31.5 111.238281 30.597656 C 111.234375 29.855469 111.367188 29.121094 111.628906 28.433594 C 112.132812 27.070312 113.179688 25.984375 114.515625 25.421875 C 115.25 25.101562 116.046875 24.9375 116.847656 24.9375 Z M 116.917969 27.285156 C 116.355469 27.253906 115.804688 27.453125 115.394531 27.839844 C 114.996094 28.285156 114.742188 28.84375 114.671875 29.441406 L 118.90625 29.441406 C 118.910156 29.175781 118.875 28.90625 118.804688 28.648438 C 118.738281 28.398438 118.625 28.167969 118.464844 27.964844 C 118.300781 27.753906 118.089844 27.585938 117.847656 27.472656 C 117.558594 27.339844 117.242188 27.273438 116.925781 27.285156 Z M 116.917969 27.285156 "/>
<path style=" stroke:none;fill-rule:evenodd;fill:rgb(0%,0%,0%);fill-opacity:1;" d="M 131.214844 36.503906 C 131.027344 36.507812 130.84375 36.457031 130.683594 36.359375 C 130.535156 36.261719 130.429688 36.113281 130.382812 35.945312 L 130.117188 35.074219 C 129.898438 35.3125 129.660156 35.53125 129.402344 35.734375 C 128.894531 36.136719 128.304688 36.417969 127.671875 36.558594 C 127.316406 36.636719 126.957031 36.675781 126.59375 36.671875 C 126.015625 36.671875 125.449219 36.53125 124.941406 36.257812 C 124.425781 35.984375 123.980469 35.59375 123.640625 35.117188 C 123.246094 34.5625 122.957031 33.945312 122.78125 33.289062 C 122.558594 32.480469 122.453125 31.644531 122.46875 30.804688 C 122.460938 30.003906 122.578125 29.203125 122.820312 28.4375 C 123.03125 27.75 123.367188 27.113281 123.808594 26.550781 C 124.226562 26.03125 124.75 25.609375 125.347656 25.308594 C 125.964844 25.007812 126.644531 24.855469 127.332031 24.863281 C 127.835938 24.847656 128.339844 24.9375 128.8125 25.121094 C 129.210938 25.285156 129.582031 25.515625 129.910156 25.792969 L 129.910156 20.058594 L 133.304688 20.058594 L 133.304688 36.503906 Z M 127.777344 34.066406 C 128.003906 34.066406 128.226562 34.042969 128.449219 33.992188 C 128.640625 33.949219 128.828125 33.878906 129 33.789062 C 129.171875 33.695312 129.332031 33.589844 129.476562 33.460938 C 129.636719 33.320312 129.785156 33.164062 129.917969 33 L 129.917969 28.167969 C 129.695312 27.90625 129.410156 27.699219 129.09375 27.566406 C 128.796875 27.453125 128.480469 27.398438 128.160156 27.398438 C 127.859375 27.394531 127.566406 27.457031 127.292969 27.585938 C 127.015625 27.722656 126.78125 27.925781 126.609375 28.183594 C 126.394531 28.511719 126.242188 28.875 126.152344 29.253906 C 126.035156 29.777344 125.980469 30.3125 125.988281 30.847656 C 125.980469 31.355469 126.027344 31.863281 126.121094 32.363281 C 126.1875 32.710938 126.3125 33.046875 126.488281 33.355469 C 126.625 33.585938 126.816406 33.773438 127.054688 33.898438 C 127.277344 34.007812 127.523438 34.066406 127.773438 34.066406 Z M 127.777344 34.066406 "/>
<path style=" stroke:none;fill-rule:evenodd;fill:rgb(0%,0%,0%);fill-opacity:1;" d="M 139.292969 24.914062 C 139.75 24.910156 140.207031 24.957031 140.65625 25.054688 C 141.066406 25.148438 141.464844 25.285156 141.847656 25.46875 L 145.273438 25.46875 L 145.273438 26.710938 C 145.28125 26.875 145.222656 27.039062 145.113281 27.160156 C 144.957031 27.292969 144.773438 27.378906 144.574219 27.414062 L 143.75 27.601562 C 143.851562 27.929688 143.902344 28.273438 143.902344 28.621094 C 143.910156 29.152344 143.785156 29.679688 143.546875 30.15625 C 143.308594 30.609375 142.976562 31.003906 142.570312 31.3125 C 142.132812 31.648438 141.636719 31.898438 141.109375 32.050781 C 140.523438 32.226562 139.917969 32.316406 139.304688 32.3125 C 138.96875 32.3125 138.632812 32.289062 138.296875 32.246094 C 138.046875 32.394531 137.921875 32.5625 137.921875 32.753906 C 137.925781 32.941406 138.046875 33.109375 138.222656 33.167969 C 138.480469 33.261719 138.746094 33.320312 139.019531 33.34375 C 139.34375 33.378906 139.726562 33.394531 140.144531 33.394531 C 140.566406 33.394531 141 33.394531 141.441406 33.453125 C 141.875 33.492188 142.304688 33.5625 142.730469 33.660156 C 143.128906 33.742188 143.511719 33.898438 143.855469 34.117188 C 144.1875 34.335938 144.460938 34.628906 144.652344 34.972656 C 144.871094 35.390625 144.980469 35.863281 144.964844 36.335938 C 144.960938 36.859375 144.835938 37.378906 144.59375 37.84375 C 144.328125 38.355469 143.953125 38.800781 143.496094 39.152344 C 142.964844 39.5625 142.363281 39.875 141.722656 40.074219 C 140.945312 40.316406 140.132812 40.433594 139.316406 40.421875 C 138.542969 40.433594 137.765625 40.347656 137.011719 40.167969 C 136.445312 40.03125 135.902344 39.808594 135.402344 39.503906 C 135.015625 39.269531 134.691406 38.941406 134.457031 38.550781 C 134.257812 38.210938 134.152344 37.824219 134.152344 37.429688 C 134.136719 36.960938 134.300781 36.503906 134.609375 36.148438 C 134.953125 35.773438 135.386719 35.488281 135.871094 35.320312 C 135.617188 35.160156 135.40625 34.9375 135.257812 34.675781 C 135.09375 34.371094 135.011719 34.027344 135.023438 33.679688 C 135.027344 33.5 135.054688 33.320312 135.109375 33.148438 C 135.175781 32.953125 135.269531 32.769531 135.386719 32.605469 C 135.523438 32.417969 135.679688 32.246094 135.859375 32.101562 C 136.066406 31.933594 136.296875 31.796875 136.539062 31.6875 C 135.976562 31.398438 135.492188 30.972656 135.140625 30.445312 C 134.523438 29.425781 134.464844 28.160156 134.992188 27.089844 C 135.234375 26.632812 135.570312 26.234375 135.980469 25.925781 C 136.429688 25.59375 136.933594 25.34375 137.464844 25.1875 C 138.0625 25.007812 138.675781 24.917969 139.296875 24.914062 Z M 141.808594 36.910156 C 141.816406 36.742188 141.757812 36.578125 141.640625 36.460938 C 141.507812 36.335938 141.351562 36.246094 141.179688 36.191406 C 140.960938 36.117188 140.730469 36.070312 140.5 36.046875 C 140.226562 36.015625 139.953125 36 139.675781 36 L 138.734375 36 C 138.414062 36 138.09375 35.972656 137.777344 35.910156 C 137.582031 36.042969 137.40625 36.210938 137.257812 36.398438 C 137.128906 36.574219 137.054688 36.789062 137.054688 37.011719 C 137.054688 37.164062 137.089844 37.316406 137.160156 37.449219 C 137.246094 37.597656 137.371094 37.71875 137.527344 37.792969 C 137.75 37.902344 137.988281 37.976562 138.234375 38.015625 C 138.605469 38.078125 138.980469 38.105469 139.359375 38.097656 C 139.761719 38.105469 140.164062 38.078125 140.5625 38.011719 C 140.824219 37.96875 141.074219 37.886719 141.3125 37.765625 C 141.476562 37.679688 141.609375 37.550781 141.699219 37.386719 C 141.773438 37.234375 141.8125 37.066406 141.804688 36.894531 L 141.804688 36.914062 Z M 139.292969 30.214844 C 140.0625 30.324219 140.773438 29.789062 140.882812 29.015625 C 140.898438 28.910156 140.902344 28.804688 140.894531 28.695312 C 140.914062 28.296875 140.777344 27.90625 140.515625 27.609375 C 139.785156 27.082031 138.804688 27.082031 138.074219 27.609375 C 137.808594 27.90625 137.671875 28.296875 137.695312 28.695312 C 137.691406 28.902344 137.722656 29.105469 137.789062 29.300781 C 137.847656 29.480469 137.945312 29.644531 138.078125 29.777344 C 138.21875 29.917969 138.386719 30.027344 138.578125 30.097656 C 138.804688 30.179688 139.050781 30.21875 139.292969 30.214844 Z M 139.292969 30.214844 "/>
<path style=" stroke:none;fill-rule:evenodd;fill:rgb(0%,0%,0%);fill-opacity:1;" d="M 150.941406 24.9375 C 151.644531 24.929688 152.34375 25.046875 153.003906 25.289062 C 153.605469 25.507812 154.15625 25.855469 154.609375 26.308594 C 155.074219 26.777344 155.433594 27.34375 155.660156 27.964844 C 155.921875 28.667969 156.050781 29.414062 156.039062 30.164062 C 156.042969 30.375 156.03125 30.585938 156.007812 30.792969 C 155.996094 30.929688 155.953125 31.058594 155.886719 31.179688 C 155.835938 31.269531 155.753906 31.339844 155.652344 31.371094 C 155.53125 31.414062 155.402344 31.433594 155.273438 31.429688 L 148.726562 31.429688 C 148.757812 32.203125 149.066406 32.9375 149.59375 33.5 C 150.089844 33.941406 150.734375 34.171875 151.398438 34.144531 C 151.742188 34.148438 152.085938 34.101562 152.417969 34 C 152.679688 33.914062 152.933594 33.804688 153.179688 33.679688 L 153.789062 33.363281 C 153.96875 33.269531 154.171875 33.21875 154.375 33.21875 C 154.617188 33.203125 154.847656 33.316406 154.988281 33.515625 L 155.972656 34.757812 C 155.648438 35.125 155.273438 35.441406 154.855469 35.703125 C 154.46875 35.949219 154.054688 36.148438 153.621094 36.300781 C 153.203125 36.4375 152.773438 36.535156 152.335938 36.597656 C 151.925781 36.648438 151.515625 36.675781 151.101562 36.675781 C 150.335938 36.683594 149.578125 36.550781 148.859375 36.285156 C 148.175781 36.035156 147.554688 35.640625 147.035156 35.128906 C 146.492188 34.585938 146.070312 33.9375 145.796875 33.21875 C 145.476562 32.371094 145.320312 31.46875 145.339844 30.5625 C 145.34375 29.820312 145.480469 29.089844 145.75 28.398438 C 146 27.734375 146.378906 27.125 146.863281 26.609375 C 147.363281 26.078125 147.964844 25.65625 148.628906 25.367188 C 149.363281 25.066406 150.148438 24.921875 150.9375 24.9375 Z M 151.007812 27.285156 C 150.449219 27.257812 149.90625 27.457031 149.5 27.839844 C 149.097656 28.285156 148.84375 28.84375 148.773438 29.441406 L 153.011719 29.441406 C 153.011719 29.175781 152.976562 28.910156 152.910156 28.648438 C 152.84375 28.398438 152.726562 28.167969 152.566406 27.964844 C 152.402344 27.753906 152.1875 27.585938 151.949219 27.472656 C 151.652344 27.339844 151.332031 27.273438 151.007812 27.285156 Z M 151.007812 27.285156 "/>
<path style=" stroke:none;fill-rule:evenodd;fill:rgb(0%,0%,0%);fill-opacity:1;" d="M 157.617188 36.503906 L 157.617188 20.324219 L 159.566406 20.324219 L 159.566406 26.871094 C 160.023438 26.382812 160.554688 25.976562 161.144531 25.664062 C 161.761719 25.351562 162.445312 25.195312 163.136719 25.210938 C 163.683594 25.195312 164.230469 25.300781 164.738281 25.511719 C 165.1875 25.703125 165.585938 25.996094 165.902344 26.367188 C 166.226562 26.757812 166.464844 27.214844 166.609375 27.703125 C 166.773438 28.261719 166.855469 28.84375 166.847656 29.429688 L 166.847656 36.503906 L 164.898438 36.503906 L 164.898438 29.421875 C 164.945312 28.71875 164.738281 28.023438 164.324219 27.460938 C 163.875 26.964844 163.226562 26.707031 162.566406 26.761719 C 162 26.757812 161.445312 26.898438 160.953125 27.175781 C 160.429688 27.46875 159.960938 27.851562 159.566406 28.304688 L 159.566406 36.503906 Z M 157.617188 36.503906 "/>
<path style=" stroke:none;fill-rule:evenodd;fill:rgb(0%,0%,0%);fill-opacity:1;" d="M 170.820312 25.375 L 170.820312 32.472656 C 170.777344 33.171875 170.980469 33.863281 171.402344 34.425781 C 171.847656 34.914062 172.492188 35.167969 173.152344 35.117188 C 173.714844 35.117188 174.269531 34.976562 174.761719 34.703125 C 175.289062 34.414062 175.757812 34.03125 176.152344 33.574219 L 176.152344 25.375 L 178.101562 25.375 L 178.101562 36.503906 L 176.9375 36.503906 C 176.683594 36.519531 176.457031 36.339844 176.414062 36.089844 L 176.261719 34.886719 C 175.804688 35.414062 175.257812 35.851562 174.652344 36.1875 C 174.015625 36.523438 173.304688 36.691406 172.589844 36.675781 C 172.039062 36.6875 171.492188 36.585938 170.984375 36.375 C 170.539062 36.191406 170.136719 35.910156 169.816406 35.546875 C 169.492188 35.15625 169.253906 34.703125 169.113281 34.214844 C 168.949219 33.65625 168.871094 33.074219 168.878906 32.492188 L 168.878906 25.375 Z M 170.820312 25.375 "/>
<path style=" stroke:none;fill-rule:evenodd;fill:rgb(0%,0%,0%);fill-opacity:1;" d="M 184.011719 36.675781 C 183.265625 36.722656 182.535156 36.457031 181.996094 35.941406 C 181.488281 35.359375 181.234375 34.59375 181.285156 33.820312 L 181.285156 27.011719 L 179.949219 27.011719 C 179.84375 27.015625 179.738281 26.980469 179.65625 26.910156 C 179.570312 26.824219 179.527344 26.703125 179.539062 26.582031 L 179.539062 25.804688 L 181.351562 25.570312 L 181.800781 22.132812 C 181.8125 22.03125 181.867188 21.933594 181.945312 21.867188 C 182.03125 21.792969 182.140625 21.757812 182.25 21.761719 L 183.238281 21.761719 L 183.238281 25.597656 L 186.414062 25.597656 L 186.414062 27.011719 L 183.238281 27.011719 L 183.238281 33.6875 C 183.203125 34.070312 183.328125 34.445312 183.574219 34.734375 C 183.808594 34.964844 184.128906 35.085938 184.453125 35.074219 C 184.632812 35.078125 184.8125 35.050781 184.980469 34.992188 C 185.117188 34.945312 185.25 34.882812 185.375 34.808594 C 185.46875 34.753906 185.558594 34.695312 185.648438 34.628906 C 185.707031 34.582031 185.777344 34.554688 185.851562 34.546875 C 185.972656 34.554688 186.078125 34.628906 186.128906 34.734375 L 186.699219 35.664062 C 186.347656 35.996094 185.933594 36.25 185.480469 36.417969 C 185.011719 36.59375 184.515625 36.679688 184.011719 36.675781 Z M 184.011719 36.675781 "/>
</g>
</svg>
